# xmcd
# Copyright (C) 1995-1998 Ti Kan
#
# Track frame offsets:
#       150
#       20852
#       63049
#       81520
#       115274
#       166943
#       180641
#       198937
#       242840
#
# Disc length: 3738 seconds
#
# Revision: 0
# Processed by: cddbd v1.5.2PL0 Copyright (c) Steve Scherf et al.
# Submitted via: CD-Transfer v1.0
#
DISCID=740e9809
DTITLE=Opak - Two Sleepwalkers On A Tight-Rope
DYEAR=05
DGENRE=
TTITLE0=Dewa Che
TTITLE1=Epilog
TTITLE2=Hypoxic
TTITLE3=Amplitude
TTITLE4=Radiomagnet
TTITLE5=Omen
TTITLE6=Le Paysage Était D'une Beauté Scandaleuse
TTITLE7=Looping
TTITLE8=Landing
EXTD=
EXTT0=
EXTT1=
EXTT2=
EXTT3=
EXTT4=
EXTT5=
EXTT6=
EXTT7=
EXTT8=
PLAYORDER=
